PathFileType	4	(X/Y/Z)	SUBJ59_3_walk_RCNL2025.trc
DataRate	CameraRate	NumFrames	NumMarkers	Units	OrigDataRate	OrigDataStartFrame	OrigNumFrames
100	100	14	25	mm	100	115	306
Frame#	Time	R_Shoulder			L_Shoulder			C7			J_Notch			R_Elbow			L_Elbow			R_Wrist			L_Wrist			R_Asis			L_Asis			Sacral			Thoracic			Sternum			R_Thigh_Lateral			R_Knee_Lateral			R_Shank_Lateral			R_Ankle_Lateral			R_Heel			R_Toe			L_Thigh_Lateral			L_Knee_Lateral			L_Shank_Lateral			L_Ankle_Lateral			L_Heel			L_Toe		
		X1	Y1	Z1	X2	Y2	Z2	X3	Y3	Z3	X4	Y4	Z4	X5	Y5	Z5	X6	Y6	Z6	X7	Y7	Z7	X8	Y8	Z8	X9	Y9	Z9	X10	Y10	Z10	X11	Y11	Z11	X12	Y12	Z12	X13	Y13	Z13	X14	Y14	Z14	X15	Y15	Z15	X16	Y16	Z16	X17	Y17	Z17	X18	Y18	Z18	X19	Y19	Z19	X20	Y20	Z20	X21	Y21	Z21	X22	Y22	Z22	X23	Y23	Z23	X24	Y24	Z24	X25	Y25	Z25
115	1.14000000	71.901222	1470.211304	71.378777	69.558533	1469.433228	-326.739105	-21.798426	1558.162109	-132.937378	137.604477	1455.079834	-129.472626	31.240351	1166.307007	190.092224	3.460151	1130.129150	-412.256378	105.678493	895.899536	190.684669	24.477739	864.250793	-391.101593	97.666771	991.629272	16.624956	113.018692	992.726807	-209.078629	-110.787231	1027.528564	-116.794746	-97.637177	1344.377075	-137.579041	181.632050	1258.496216	-117.466270	31.663115	604.930237	127.924339	20.270491	506.966278	79.224396	-107.838623	364.369690	152.183258	-296.243744	209.478867	33.483452	-324.893280	232.657318	-14.177917	-210.460922	79.332535	-7.439104	69.334389	607.069031	-288.742554	90.437767	501.437408	-228.526688	80.392136	302.618256	-285.166718	58.495243	79.342224	-200.542633	10.017891	56.354183	-148.268356	212.675125	38.256008	-148.296722
116	1.15000000	81.229362	1471.119019	71.436378	80.793907	1471.076538	-326.996674	-11.438004	1559.317627	-133.505524	147.996170	1456.347900	-129.670013	37.780800	1166.598145	188.843384	19.944689	1131.410889	-414.265594	109.334454	895.349640	189.900070	46.207826	866.008789	-392.340775	109.256554	993.254639	15.379313	123.297394	993.636169	-210.750870	-100.090866	1028.574341	-116.961998	-86.963257	1345.373535	-138.871597	192.131027	1259.813965	-118.147369	51.368687	606.997253	127.808266	42.621037	508.958313	78.993057	-84.998962	366.392487	150.957428	-270.070038	207.818527	31.291008	-299.285583	230.330048	-16.478212	-180.176224	80.437225	-8.468475	74.484024	607.224487	-289.098999	94.085175	501.281891	-228.815201	82.635300	302.535858	-285.529968	58.046883	79.107292	-200.675888	10.085227	56.441151	-148.266296	212.752228	38.145462	-148.234802
117	1.16000000	90.530373	1471.866211	71.520439	91.805588	1472.741943	-327.218933	-1.184654	1560.340576	-133.961182	158.295242	1457.508667	-129.797562	44.230988	1166.777222	187.617828	36.525906	1132.752441	-416.245422	112.907364	894.748413	189.153671	68.119066	867.953217	-393.531128	120.869446	994.803101	14.129151	133.592865	994.492493	-212.400482	-89.389374	1029.539185	-117.034767	-76.353111	1346.221680	-140.012817	202.588806	1261.047119	-118.884888	70.848656	609.040833	127.501274	64.671776	511.024017	78.523819	-61.983955	367.925171	149.612381	-242.912827	204.857590	29.139221	-272.770538	226.553085	-18.730984	-148.345062	80.767616	-9.612278	79.615463	607.356750	-289.362122	97.569954	501.121368	-228.992004	84.733185	302.462036	-285.774231	57.544838	78.791229	-200.752548	10.106438	56.571774	-148.262802	212.878128	38.030132	-148.155060
118	1.17000000	99.817116	1472.441772	71.621246	102.618690	1474.400635	-327.413452	8.977652	1561.219116	-134.317902	168.514389	1458.556396	-129.864609	50.643803	1166.846313	186.410797	53.179695	1134.138062	-418.178680	116.421021	894.087372	188.445229	90.166367	870.077057	-394.674911	132.471695	996.228699	12.876078	143.914795	995.282959	-214.005310	-78.685432	1030.402710	-117.014320	-65.798080	1346.909424	-141.002640	213.025406	1262.181152	-119.673805	90.090172	611.012878	126.981613	86.386497	513.106323	77.799088	-38.701797	368.811951	148.160385	-214.790924	200.697922	27.041574	-245.359772	221.371384	-20.939558	-115.138802	80.369202	-10.808640	84.669121	607.473206	-289.541229	100.857529	500.964661	-229.073502	86.569626	302.405853	-285.914612	57.060078	78.453499	-200.752060	10.082431	56.737038	-148.253464	213.048065	37.913330	-148.065323
119	1.18000000	109.101791	1472.836426	71.738159	113.264900	1476.015869	-327.580963	19.066935	1561.942505	-134.584427	178.667572	1459.484375	-129.881073	57.069210	1166.801758	185.221954	69.881172	1135.546265	-420.050903	119.904320	893.357300	187.773170	112.310600	872.368134	-395.775970	144.020798	997.491516	11.621074	154.272919	995.987244	-215.542389	-67.981270	1031.140137	-116.909195	-55.290409	1347.428711	-141.846954	223.458664	1263.201538	-120.497925	109.073067	612.889587	126.242958	107.736191	515.170410	76.815964	-15.078677	368.972870	146.612900	-185.713181	195.468201	25.008486	-217.052200	214.852997	-23.115887	-80.757187	79.298203	-12.015658	89.598457	607.579834	-289.649445	103.931061	500.818237	-229.078842	88.095306	302.374359	-285.972992	56.661213	78.163391	-200.666870	10.009405	56.923347	-148.239349	213.254517	37.799572	-147.976288
120	1.19000000	118.397881	1473.043335	71.875343	123.778900	1477.545898	-327.714996	29.101013	1562.500610	-134.765610	188.770523	1460.281982	-129.855576	63.547768	1166.635254	184.053497	86.604607	1136.951050	-421.849487	123.388805	892.546967	187.134430	134.514801	874.808990	-396.834534	155.476974	998.558655	10.367740	164.676346	996.579285	-216.994827	-57.277428	1031.725586	-116.735222	-44.822208	1347.774170	-142.556335	233.902267	1264.094116	-121.334816	127.769814	614.661072	125.291710	128.696396	517.191162	75.586174	8.946362	368.390137	144.977722	-155.681015	189.309479	23.048744	-187.832520	207.098602	-25.271938	-45.413940	77.619965	-13.215319	94.382950	607.681152	-289.705170	106.796478	500.687103	-229.029846	89.329124	302.369446	-285.973450	56.385025	77.970039	-200.504501	9.886229	57.117878	-148.222412	213.484634	37.694366	-147.903381
121	1.20000000	127.721001	1473.057495	72.038368	134.195038	1478.948120	-327.803009	39.096169	1562.883423	-134.864304	198.840591	1460.935547	-129.794495	70.106407	1166.336182	182.909470	103.324265	1138.325317	-423.564026	126.905231	891.642242	186.524078	156.741959	877.377380	-397.846771	166.809357	999.403748	9.122083	175.131470	997.029358	-218.355164	-46.572350	1032.135254	-116.513649	-34.385067	1347.942139	-143.144028	244.365295	1264.845459	-122.160667	146.148315	616.319885	124.142532	149.246231	519.141174	74.131805	33.416096	367.088348	143.259521	-124.693420	182.354523	21.165625	-157.670944	198.249756	-27.412416	-9.288839	75.419220	-14.408376	99.032059	607.778137	-289.731049	109.483391	500.575012	-228.950043	90.339752	302.387970	-285.939423	56.231121	77.888893	-200.281418	9.723747	57.313915	-148.198273	213.718796	37.603065	-147.865921
122	1.21000000	137.088394	1472.874023	72.232590	144.545197	1480.183105	-327.830109	49.066982	1563.081055	-134.882797	208.895218	1461.428833	-129.702682	76.759712	1165.893188	181.795822	120.016098	1139.645142	-425.187592	130.479763	890.626587	185.935326	178.957779	880.049500	-398.808746	177.994690	1000.005493	7.889338	185.637390	997.307251	-219.619873	-35.862865	1032.349487	-116.267464	-23.970554	1347.929932	-143.623611	254.852982	1265.442871	-122.953873	164.177261	617.852173	122.812477	169.367142	520.984375	72.479034	58.339413	365.122406	141.463882	-92.757423	174.707993	19.351732	-126.537003	188.479507	-29.530485	27.509272	72.808640	-15.600265	103.582367	607.866333	-289.751495	112.041954	500.483368	-228.863174	91.221466	302.423248	-285.892059	56.176514	77.909897	-200.015457	9.550917	57.514515	-148.150345	213.936218	37.527481	-147.878723
123	1.22000000	146.517639	1472.488037	72.463448	154.856750	1481.218140	-327.783936	59.026993	1563.084717	-134.822830	218.950500	1461.744995	-129.582733	83.516327	1165.294922	180.720917	136.657471	1140.892944	-426.715912	134.131973	889.482361	185.360275	201.130592	882.803162	-399.718338	189.018738	1000.346375	6.674972	196.181305	997.386108	-220.782364	-25.145790	1032.354858	-116.017166	-13.570732	1347.734985	-144.006424	265.366882	1265.872559	-123.696899	181.831818	619.233093	121.317245	189.039078	522.675659	70.653358	83.680122	362.571136	139.599609	-59.897083	166.451477	17.592014	-94.419838	177.969849	-31.607594	64.940514	69.925423	-16.789190	108.092072	607.935913	-289.788483	114.536636	500.410034	-228.790680	92.073914	302.467072	-285.848816	56.192230	78.011070	-199.720886	9.408157	57.730804	-148.054352	214.124207	37.464188	-147.943283
124	1.23000000	156.024292	1471.893677	72.737946	165.151993	1482.029297	-327.655945	68.989738	1562.888184	-134.685364	229.021332	1461.869019	-129.432999	90.384956	1164.531128	179.695480	153.225632	1142.056763	-428.145660	137.874596	888.192780	184.791084	223.228653	885.618225	-400.573761	199.888824	1000.414978	5.490778	206.738663	997.245789	-221.831848	-14.419420	1032.144531	-115.778038	-3.178288	1347.356323	-144.300232	275.905182	1266.117676	-124.376572	199.095779	620.428711	119.670586	208.234924	524.163147	68.676910	109.360870	359.527771	137.678436	-26.152088	157.673355	15.875103	-61.331760	166.899567	-33.618401	103.006584	66.920517	-17.964062	112.632645	607.972778	-289.858185	117.039986	500.348541	-228.748245	92.985924	302.513184	-285.821503	56.254524	78.167976	-199.407059	9.330995	57.975113	-147.892303	214.281036	37.407719	-148.049240
125	1.24000000	165.619034	1471.086060	73.064957	175.449524	1482.600464	-327.439911	78.969650	1562.488403	-134.470352	239.121613	1461.788208	-129.248138	97.376221	1163.593506	178.730942	169.696976	1143.128662	-429.476135	141.713768	886.742188	184.220184	245.220116	888.476562	-401.371964	210.650009	1000.211365	4.359274	217.281860	996.875488	-222.757614	-3.683239	1031.717285	-115.558754	7.213388	1346.795288	-144.509811	286.463623	1266.159546	-124.984451	215.959778	621.401611	117.885277	226.916779	525.392334	66.567719	135.274429	356.089783	135.715332	8.430793	148.489731	14.199855	-27.298239	155.443954	-35.539230	141.718704	63.950302	-19.107225	117.279327	607.959412	-289.971069	119.627975	500.288757	-228.743469	94.024910	302.558655	-285.814941	56.349430	78.358856	-199.080292	9.341073	58.254906	-147.661560	214.412628	37.354542	-148.180969
126	1.25000000	175.306915	1470.061401	73.453163	185.766068	1482.924316	-327.131592	88.981529	1561.885132	-134.176453	249.263596	1461.491455	-129.022324	104.502502	1162.476074	177.836868	186.047485	1144.103638	-430.714569	145.652561	885.117981	183.641167	267.075233	891.362915	-402.108948	221.386307	999.749817	3.311656	227.791992	996.276306	-223.556015	7.063917	1031.074219	-115.360283	17.610220	1346.056519	-144.638168	297.036957	1265.980957	-125.516922	232.417877	622.116211	115.975243	245.037308	526.313354	64.342239	161.287888	352.357239	133.727554	43.802170	139.045364	12.573302	7.646947	143.777969	-37.354500	181.066650	61.172745	-20.195042	122.103325	607.877380	-290.133087	122.375893	500.217499	-228.776581	95.236664	302.600464	-285.827423	56.471828	78.567635	-198.745346	9.447254	58.572113	-147.372238	214.529327	37.303894	-148.321854
127	1.26000000	185.090027	1468.817749	73.908524	196.117065	1483.002563	-326.729553	99.039482	1561.081543	-133.801208	259.456390	1460.969116	-128.750946	111.777817	1161.173340	177.019318	202.254074	1144.979614	-431.874207	149.702137	883.315369	183.052719	288.767288	894.265869	-402.780685	232.197418	999.051758	2.379155	238.263702	995.461304	-224.235031	17.825237	1030.215942	-115.175064	28.017378	1345.147339	-144.687149	307.620636	1265.567627	-125.973572	248.464050	622.540222	113.958038	262.545807	526.886230	62.020149	187.239670	348.435272	131.730927	79.906425	129.509293	11.006060	43.461708	132.083145	-39.059258	220.993469	58.742901	-21.198416	127.166405	607.710571	-290.345917	125.354286	500.119049	-228.843002	96.652840	302.631744	-285.852325	56.622478	78.785683	-198.405121	9.646144	58.926659	-147.038864	214.644363	37.256737	-148.457520
128	1.27000000	194.970901	1467.356445	74.432915	206.516266	1482.845093	-326.235168	109.157013	1560.084229	-133.341965	269.705017	1460.214966	-128.429657	119.218010	1159.682007	176.281036	218.296249	1145.756714	-432.964142	153.893127	881.341003	182.462593	310.270874	897.177917	-403.383545	243.163773	998.134888	1.581692	248.702652	994.452393	-224.812469	28.606396	1029.141846	-114.988487	38.438698	1344.078003	-144.657516	318.212402	1264.910522	-126.355415	264.088684	622.643066	111.856941	279.394012	527.080261	59.627132	212.940674	344.430634	129.736786	116.673981	120.069595	9.507446	80.095337	120.552505	-40.660900	261.387512	56.806145	-22.087700	132.516693	607.446716	-290.606506	128.624817	499.976196	-228.935150	98.296944	302.642792	-285.879211	56.804878	79.010384	-198.060562	9.919839	59.321320	-146.672791	214.770645	37.213856	-148.578384
